<?xml version="1.0" encoding="utf-8"?>
<!-- Generator: Adobe Illustrator 19.2.1, SVG Export Plug-In . SVG Version: 6.00 Build 0)  -->
<svg version="1.1" id="webchart" xmlns="http://www.w3.org/2000/svg" xmlns:xlink="http://www.w3.org/1999/xlink" x="0px" y="0px"
	 viewBox="0 0 600 500" style="enable-background:new 0 0 600 500;" xml:space="preserve">
<style type="text/css">
	.st0{fill:none;stroke:#9BA497;stroke-dasharray:1,0;}
	.st1{fill:none;}
	.st2{fill:#3B3D3B;}
	.st3{font-family:'Metric-Regular';}
	.st4{font-size:25px;}
	.st5{fill:#6B6E68;}
	.st6{font-size:14px;}
	.st7{fill:#DACFC5;}
	.st8{fill:none;stroke:#C3BCB0;stroke-dasharray:1,2;}
	.st9{font-size:18px;}
	.st10{fill:none;stroke:#C3BCB0;}
	.st11{font-size:16px;}
	.st12{fill:#94A5B2;}
	.st13{font-size:17px;}
	.st14{fill:#A5526A;}
	.st15{fill:#4E86B6;stroke:#020202;stroke-miterlimit:10;}
	.st16{fill:#4E86B6;}
	.st17{fill:#EA9B9B;}
	.st18{font-family:'Metric-Medium';}
	.st19{fill:#5F605E;}
</style>
<line class="st0" x1="293.3" y1="428" x2="293.3" y2="79.6"/>
<rect y="16" class="st1" width="600" height="500"/>
<g id="webheader">
	<text transform="matrix(1 0 0 1 0 19)" class="st2 st3 st4">Boards in financial sector older and staler on average</text>
</g>
<g>
	<text transform="matrix(1 0 0 1 2.0195 491.0797)" class="st5 st3 st6">Source: FT analysis of ISS Analytics data</text>
	<g transform="translate(571,484)">
		<path class="st7" d="M-8,10.9h7.6v-0.6c-0.5,0-0.9,0-1.2-0.1c-0.3,0-0.5-0.1-0.7-0.3c-0.2-0.1-0.3-0.3-0.4-0.6
			c-0.1-0.2-0.1-0.6-0.1-1V3.1h1.2c1.1,0,1.9,0.2,2.3,0.5c0.5,0.3,0.8,0.9,1,1.9h0.6v-5.6H1.8c-0.1,0.6-0.3,1-0.5,1.3
			s-0.5,0.5-1,0.6C-0.1,1.9-0.7,2-1.5,2h-1.2v-5.1c0-0.3,0.1-0.5,0.2-0.7C-2.4-3.9-2.2-4-1.8-4h2.4C1.4-4,2-4,2.5-3.9
			C3-3.8,3.4-3.7,3.7-3.5s0.6,0.4,0.7,0.7c0.2,0.3,0.3,0.7,0.5,1.1h0.7L5.4-5.1H-8v0.6c0.4,0,0.8,0.1,1,0.1s0.4,0.1,0.6,0.3
			C-6.2-4-6.1-3.8-6-3.6s0.1,0.6,0.1,1V8.3c0,0.4,0,0.8-0.1,1s-0.2,0.4-0.4,0.6C-6.6,10-6.8,10.1-7,10.2c-0.2,0-0.6,0.1-1,0.1V10.9z
			 M6.2-1.6H7c0.3-0.9,0.6-1.5,1-1.8c0.4-0.4,1.1-0.5,1.9-0.5h2V8.4c0,0.4,0,0.8-0.1,1s-0.2,0.4-0.4,0.6c-0.2,0.1-0.4,0.2-0.7,0.3
			c-0.3,0-0.6,0.1-1.1,0.1v0.5h7.7v-0.6c-0.5,0-0.9,0-1.1-0.1c-0.3,0-0.5-0.1-0.7-0.3c-0.2-0.1-0.3-0.3-0.4-0.6
			C15,9.1,15,8.7,15,8.3V-3.9h2c0.8,0,1.5,0.2,1.9,0.5c0.4,0.4,0.8,1,1,1.8h0.8l-0.2-3.5H6.6L6.2-1.6z"/>
	</g>
</g>
<g transform="translate(0,376.75)">
	<line class="st8" x1="540.4" y1="51.2" x2="28.5" y2="51.2"/>
	<text transform="matrix(1 0 0 1 2.8156 57.01)" class="st5 st3 st9">5.9</text>
</g>
<g transform="translate(0,301.40000000000003)">
	<line class="st8" x1="540.4" y1="51.2" x2="28.5" y2="51.2"/>
	<text transform="matrix(1 0 0 1 1.8793 57.01)" class="st5 st3 st9">6.4</text>
</g>
<g transform="translate(0,226.04999999999998)">
	<line class="st8" x1="540.4" y1="51.2" x2="28.5" y2="51.2"/>
	<text transform="matrix(1 0 0 1 -1 57.01)" class="st5 st3 st9">6.9</text>
</g>
<g transform="translate(0,150.70000000000002)">
	<line class="st0" x1="540.4" y1="51.2" x2="28.5" y2="51.2"/>
	<text transform="matrix(1 0 0 1 4.0754 57.01)" class="st5 st3 st9">7.4</text>
</g>
<g transform="translate(0,75.34999999999998)">
	<line class="st8" x1="540.4" y1="51.2" x2="28.5" y2="51.2"/>
	<text transform="matrix(1 0 0 1 5.0117 57.01)" class="st5 st3 st9">7.9</text>
</g>
<g transform="translate(8.630950552825531,0)">
	<line class="st10" x1="38.5" y1="428" x2="38.5" y2="437"/>
	<text transform="matrix(1 0 0 1 25.6615 452.78)" class="st5 st3 st9">58</text>
</g>
<g transform="translate(70.28059735872233,0)">
	<line class="st10" x1="38.5" y1="428" x2="38.5" y2="437"/>
</g>
<g transform="translate(131.93024416461915,0)">
	<line class="st10" x1="38.5" y1="428" x2="38.5" y2="437"/>
	<text transform="matrix(1 0 0 1 26.7143 452.78)" class="st5 st3 st9">59</text>
</g>
<g transform="translate(193.57989097051592,0)">
	<line class="st10" x1="38.5" y1="428" x2="38.5" y2="437"/>
</g>
<g transform="translate(255.22953777641274,0)">
	<line class="st10" x1="38.5" y1="428" x2="38.5" y2="437"/>
	<text transform="matrix(1 0 0 1 27.8123 452.78)" class="st5 st3 st9">60</text>
</g>
<g transform="translate(316.87918458230956,0)">
	<line class="st10" x1="38.5" y1="428" x2="38.5" y2="437"/>
</g>
<g transform="translate(378.5288313882063,0)">
	<line class="st10" x1="38.5" y1="428" x2="38.5" y2="437"/>
	<text transform="matrix(1 0 0 1 29.4774 452.78)" class="st5 st3 st9">61</text>
</g>
<g transform="translate(440.17847819410315,0)">
	<line class="st10" x1="38.5" y1="428" x2="38.5" y2="437"/>
</g>
<g transform="translate(501.828125,0)">
	<line class="st10" x1="38.5" y1="428" x2="38.5" y2="437"/>
	<text transform="matrix(1 0 0 1 28.2626 452.78)" class="st5 st3 st9">62</text>
</g>
<path class="st1" d="M38.5,437v-9h501.8v9"/>
<text transform="matrix(1 0 0 1 251.6216 468.5)" class="st5 st3 st11">Average age</text>
<rect x="91" y="58.4" class="st1" width="117" height="53.4"/>
<text transform="matrix(1 0 0 1 104.7454 72.1683)" class="st12 st3 st13">Long tenures, </text>
<text transform="matrix(1 0 0 1 91.7454 90.1683)" class="st12 st3 st13">younger directors</text>
<circle id="Energy" class="st14" cx="407.2" cy="265.2" r="5.6"/>
<circle id="Financials" class="st15" cx="380.1" cy="126.6" r="5.6"/>
<circle id="Health_Care" class="st14" cx="328.3" cy="245.7" r="5.6"/>
<circle id="Industrials" class="st16" cx="319.7" cy="198.9" r="5.6"/>
<circle id="Materials" class="st14" cx="303.6" cy="284.3" r="5.6"/>
<circle id="Utilities" class="st17" cx="291.3" cy="355.7" r="5.6"/>
<circle id="Information_Technology" class="st12" cx="201.3" cy="177.8" r="5.6"/>
<circle id="Consumer_Discretionary" class="st12" cx="186.5" cy="177.8" r="5.6"/>
<circle id="Consumer_Staples" class="st17" cx="182.8" cy="203.5" r="5.6"/>
<circle id="Telecommunication_Services" class="st17" cx="38.5" cy="414.4" r="5.6"/>
<text id="webEnergy" transform="matrix(1 0 0 1 407.2142 256.6873)" class="st5 st18 st13">Energy</text>
<text id="webFinancials" transform="matrix(1 0 0 1 380.0884 118.0433)" class="st19 st18 st13">Financials</text>
<text id="webHealthCare" transform="matrix(1 0 0 1 328.3026 237.0963)" class="st5 st18 st13">Health care</text>
<text id="webIndustrials" transform="matrix(1 0 0 1 319.6717 190.3793)" class="st5 st18 st13">Industrials</text>
<text id="webMaterials" transform="matrix(1 0 0 1 303.6428 274.7713)" class="st5 st18 st13">Materials</text>
<text id="webUtilities" transform="matrix(1 0 0 1 297.3129 347.1073)" class="st5 st18 st13">Utilities </text>
<text id="webInformationTechnology" transform="matrix(1 0 0 1 201.3044 169.2813)" class="st5 st18 st13">IT</text>
<text id="webConsumerDiscretionary" transform="matrix(1 0 0 1 21.5085 171.2813)" class="st5 st18 st13">Consumer discretionary</text>
<text id="webConsumerStaples" transform="matrix(1 0 0 1 169.8095 222.9003)" class="st5 st18 st13">Consumer staples </text>
<text id="webTelecommunicationServices" transform="matrix(1 0 0 1 38.5493 405.8803)" class="st5 st18 st13">Telecom</text>
<rect x="384.2" y="58.4" class="st1" width="109.4" height="42.3"/>
<text transform="matrix(1 0 0 1 394.1182 72.1683)" class="st16 st3 st13">Long tenures, </text>
<text transform="matrix(1 0 0 1 391.5182 90.1683)" class="st16 st3 st13">older directors</text>
<g>
	<rect x="87.3" y="295.8" class="st1" width="124.5" height="51.3"/>
	<text transform="matrix(1 0 0 1 103.7511 309.556)" class="st17 st3 st13">Short tenures, </text>
	<text transform="matrix(1 0 0 1 91.7511 327.556)" class="st17 st3 st13">younger directors</text>
</g>
<rect x="381.5" y="295.8" class="st1" width="114.8" height="44.2"/>
<text transform="matrix(1 0 0 1 393.1231 309.556)" class="st14 st3 st13">Short tenures, </text>
<text transform="matrix(1 0 0 1 391.5231 327.556)" class="st14 st3 st13">older directors</text>
<text transform="matrix(1 0 0 1 2.0194 228.3793)" class="st5 st3 st11">Average tenure</text>
<text transform="matrix(1 0 0 1 -1.0001 42.2504)" class="st5 st3 st9">Industries’ average director age and tenure length in years</text>
</svg>
