<?xml version="1.0" encoding="utf-8"?>
<!-- Generator: Adobe Illustrator 19.2.1, SVG Export Plug-In . SVG Version: 6.00 Build 0)  -->
<svg version="1.1" id="webchart" xmlns="http://www.w3.org/2000/svg" xmlns:xlink="http://www.w3.org/1999/xlink" x="0px" y="0px"
	 viewBox="0 0 618 430.5" style="enable-background:new 0 0 618 430.5;" xml:space="preserve">
<style type="text/css">
	.st0{fill:none;}
	.st1{fill:#3B3D3B;}
	.st2{font-family:'Metric-Regular';}
	.st3{font-size:22px;}
	.st4{fill:#6B6E68;}
	.st5{font-size:14px;}
	.st6{fill:#DACFC5;}
	.st7{font-family:'Metric-Medium';}
	.st8{font-size:18px;}
	.st9{fill:none;stroke:#9BA497;stroke-dasharray:1,0;}
	.st10{fill:none;stroke:#C3BCB0;stroke-dasharray:1,2;}
	.st11{fill:#9E2F50;}
	.st12{fill:#A5526A;}
	.st13{enable-background:new    ;}
</style>
<g>
	
		<rect x="2.9" y="4.7" transform="matrix(1 -3.655907e-03 3.655907e-03 1 -7.223472e-02 0.569)" class="st0" width="305.3" height="30.6"/>
	<text transform="matrix(1 0 0 1 102.3829 21.9291)" class="st1 st2 st3">Average age</text>
</g>
<text transform="matrix(1 0 0 1 6.4079 427.6597)" class="st4 st2 st5">Source: FT analysis of ISS Analytics data</text>
<g transform="translate(296,434)">
	<path class="st6" d="M268.9-4.5h7.6v-0.6c-0.5,0-0.9,0-1.2-0.1c-0.3,0-0.5-0.1-0.7-0.3c-0.2-0.1-0.3-0.3-0.4-0.6
		c-0.1-0.2-0.1-0.6-0.1-1v-5.2h1.2c1.1,0,1.9,0.2,2.3,0.5c0.5,0.3,0.8,0.9,1,1.9h0.6v-5.6h-0.5c-0.1,0.6-0.3,1-0.5,1.3
		c-0.2,0.3-0.5,0.5-1,0.6c-0.4,0.1-1,0.2-1.8,0.2h-1.2v-5.1c0-0.3,0.1-0.5,0.2-0.7c0.1-0.1,0.3-0.2,0.7-0.2h2.4c0.8,0,1.4,0,1.9,0.1
		s0.9,0.2,1.2,0.4c0.3,0.2,0.6,0.4,0.7,0.7c0.2,0.3,0.3,0.7,0.5,1.1h0.7l-0.2-3.4h-13.4v0.6c0.4,0,0.8,0.1,1,0.1s0.4,0.1,0.6,0.3
		c0.2,0.1,0.3,0.3,0.4,0.5c0.1,0.2,0.1,0.6,0.1,1v10.9c0,0.4,0,0.8-0.1,1s-0.2,0.4-0.4,0.6c-0.2,0.1-0.4,0.2-0.6,0.3
		c-0.2,0-0.6,0.1-1,0.1C268.9-5.1,268.9-4.5,268.9-4.5z M283.1-17h0.8c0.3-0.9,0.6-1.5,1-1.8c0.4-0.4,1.1-0.5,1.9-0.5h2V-7
		c0,0.4,0,0.8-0.1,1c-0.1,0.2-0.2,0.4-0.4,0.6c-0.2,0.1-0.4,0.2-0.7,0.3c-0.3,0-0.6,0.1-1.1,0.1v0.5h7.7v-0.6c-0.5,0-0.9,0-1.1-0.1
		c-0.3,0-0.5-0.1-0.7-0.3c-0.2-0.1-0.3-0.3-0.4-0.6c-0.1-0.2-0.1-0.6-0.1-1v-12.2h2c0.8,0,1.5,0.2,1.9,0.5c0.4,0.4,0.8,1,1,1.8h0.8
		l-0.2-3.5h-13.9L283.1-17z"/>
</g>
<g transform="translate(0,17)">
	<line class="st4" x1="324.1" y1="30.6" x2="324.1" y2="30.6"/>
	<rect x="296.1" y="21.9" class="st0" width="24.3" height="18.1"/>
	<text transform="matrix(1 0 0 1 298.3138 36.4096)" class="st4 st7 st8">US</text>
</g>
<g transform="translate(0,37)">
	<line class="st4" x1="344.1" y1="30.6" x2="344.1" y2="30.6"/>
	<rect x="276.1" y="21.9" class="st0" width="64.2" height="18.1"/>
	<text transform="matrix(1 0 0 1 282.3734 36.4096)" class="st4 st2 st8">Canada</text>
</g>
<g transform="translate(0,57)">
	<line class="st4" x1="335.8" y1="30.6" x2="335.8" y2="30.6"/>
	<rect x="284.5" y="21.9" class="st0" width="47.6" height="18.1"/>
	<text transform="matrix(1 0 0 1 289.0872 36.4096)" class="st4 st2 st8">Spain</text>
</g>
<g transform="translate(0,77)">
	<line class="st4" x1="364.3" y1="30.6" x2="364.3" y2="30.6"/>
	
		<rect x="255.7" y="21.4" transform="matrix(1 -3.655907e-03 3.655907e-03 1 -0.1094 1.1265)" class="st0" width="104.7" height="18.1"/>
	<text transform="matrix(1 0 0 1 265.8528 35.7583)" class="st4 st2 st8">Netherlands</text>
</g>
<g transform="translate(0,97)">
	<line class="st4" x1="362" y1="30.6" x2="362" y2="30.6"/>
	
		<rect x="258.2" y="21.4" transform="matrix(1 -3.655907e-03 3.655907e-03 1 -0.1094 1.1268)" class="st0" width="100" height="18.1"/>
	<text transform="matrix(1 0 0 1 267.8353 35.7671)" class="st4 st2 st8">Switzerland</text>
</g>
<g transform="translate(0,117)">
	<line class="st4" x1="335.8" y1="30.6" x2="335.8" y2="30.6"/>
	<rect x="284.4" y="21.9" class="st0" width="47.7" height="18.1"/>
	<text transform="matrix(1 0 0 1 288.9075 36.4096)" class="st4 st2 st8">Brazil</text>
</g>
<g transform="translate(0,137)">
	<line class="st4" x1="330.3" y1="30.6" x2="330.3" y2="30.6"/>
	
		<rect x="299.2" y="12.6" transform="matrix(2.198082e-02 -0.9998 0.9998 2.198082e-02 270.5241 338.4488)" class="st0" width="18.1" height="36.8"/>
	<text transform="matrix(1 0 0 1 293.3577 36.0083)" class="st4 st2 st8">Italy</text>
</g>
<g transform="translate(0,157)">
	<line class="st4" x1="341.4" y1="30.6" x2="341.4" y2="30.6"/>
	<rect x="278.9" y="21.9" class="st0" width="58.8" height="18.1"/>
	<text transform="matrix(1 0 0 1 284.4534 36.4096)" class="st4 st2 st8">Ireland</text>
</g>
<g transform="translate(0,177)">
	<line class="st4" x1="343.6" y1="30.6" x2="343.6" y2="30.6"/>
	<rect x="276.6" y="21.9" class="st0" width="63.3" height="18.1"/>
	<text transform="matrix(1 0 0 1 282.7689 36.4096)" class="st4 st2 st8">Finland</text>
</g>
<g transform="translate(0,197)">
	<line class="st4" x1="350.8" y1="30.6" x2="350.8" y2="30.6"/>
	<rect x="269.4" y="21.9" class="st0" width="77.7" height="18.1"/>
	<text transform="matrix(1 0 0 1 276.9905 36.4096)" class="st4 st2 st8">Germany</text>
</g>
<g transform="translate(0,217)">
	<line class="st4" x1="324.9" y1="30.6" x2="324.9" y2="30.6"/>
	<rect x="295.3" y="21.9" class="st0" width="25.9" height="18.1"/>
	<text transform="matrix(1 0 0 1 297.8079 36.4096)" class="st4 st2 st8">UK</text>
</g>
<g transform="translate(0,237)">
	<line class="st4" x1="340.7" y1="30.6" x2="340.7" y2="30.6"/>
	<rect x="279.5" y="21.9" class="st0" width="57.5" height="18.1"/>
	<text transform="matrix(1 0 0 1 284.8655 36.4096)" class="st4 st2 st8">France</text>
</g>
<g transform="translate(0,257)">
	<line class="st4" x1="364.9" y1="30.6" x2="364.9" y2="30.6"/>
	
		<rect x="255.8" y="21.4" transform="matrix(1 -3.655907e-03 3.655907e-03 1 -0.1094 1.1289)" class="st0" width="105.9" height="18.1"/>
	<text transform="matrix(1 0 0 1 266.0618 35.7553)" class="st4 st2 st8">South Africa</text>
</g>
<g transform="translate(0,277)">
	<line class="st4" x1="345.5" y1="30.6" x2="345.5" y2="30.6"/>
	<rect x="274.7" y="21.9" class="st0" width="67.1" height="18.1"/>
	<text transform="matrix(1 0 0 1 281.2396 36.4096)" class="st4 st2 st8">Sweden</text>
</g>
<g transform="translate(0,297)">
	<line class="st4" x1="350.8" y1="30.6" x2="350.8" y2="30.6"/>
	<rect x="269.4" y="21.9" class="st0" width="77.8" height="18.1"/>
	<text transform="matrix(1 0 0 1 276.973 36.4096)" class="st4 st2 st8">Denmark</text>
</g>
<g transform="translate(0,317)">
	<line class="st4" x1="344.9" y1="30.6" x2="344.9" y2="30.6"/>
	<rect x="275.3" y="21.9" class="st0" width="65.8" height="18.1"/>
	<text transform="matrix(1 0 0 1 281.6624 36.4096)" class="st4 st2 st8">Norway</text>
</g>
<g transform="translate(0,337)">
	<line class="st4" x1="339.7" y1="30.6" x2="339.7" y2="30.6"/>
	<rect x="280.6" y="21.9" class="st0" width="55.4" height="18.1"/>
	<text transform="matrix(1 0 0 1 285.9105 36.4096)" class="st4 st2 st8">Russia</text>
</g>
<line class="st9" x1="358.8" y1="35.4" x2="358.8" y2="379.4"/>
<g>
	<text transform="matrix(0.9533 0 0 1 354.8392 403.1801)" class="st4 st2 st8">0</text>
</g>
<line class="st10" x1="385.4" y1="35.4" x2="385.4" y2="379.4"/>
<g>
	<text transform="matrix(0.9533 0 0 1 383.7689 403.1801)" class="st4 st2 st8">1</text>
</g>
<line class="st10" x1="412" y1="35.4" x2="412" y2="379.4"/>
<g>
	<text transform="matrix(0.9533 0 0 1 409.0794 403.1801)" class="st4 st2 st8">2</text>
</g>
<line class="st10" x1="438.6" y1="35.4" x2="438.6" y2="379.4"/>
<g>
	<text transform="matrix(0.9533 0 0 1 435.7532 403.1801)" class="st4 st2 st8">3</text>
</g>
<line class="st10" x1="465.2" y1="35.4" x2="465.2" y2="379.4"/>
<g>
	<text transform="matrix(0.9533 0 0 1 461.554 403.1801)" class="st4 st2 st8">4</text>
</g>
<line class="st10" x1="491.8" y1="35.4" x2="491.8" y2="379.4"/>
<g>
	<text transform="matrix(0.9533 0 0 1 488.8431 403.1801)" class="st4 st2 st8">5</text>
</g>
<line class="st10" x1="518.4" y1="35.4" x2="518.4" y2="379.4"/>
<g>
	<text transform="matrix(0.9533 0 0 1 515.0364 403.1801)" class="st4 st2 st8">6</text>
</g>
<line class="st10" x1="545" y1="35.4" x2="545" y2="379.4"/>
<g>
	<text transform="matrix(0.9533 0 0 1 542.056 403.1801)" class="st4 st2 st8">7</text>
</g>
<line class="st10" x1="571.6" y1="35.4" x2="571.6" y2="379.4"/>
<g>
	<text transform="matrix(0.9533 0 0 1 568.1712 403.1801)" class="st4 st2 st8">8</text>
</g>
<g id="US-8.247383991_1_" transform="translate(98.296875,0)">
	<rect id="US-8.247383991" x="260.6" y="39.6" class="st11" width="219.3" height="16"/>
</g>
<g id="Canada-7.662935609_1_" transform="translate(98.296875,0)">
	<rect id="Canada-7.662935609" x="260.6" y="59.6" class="st12" width="203.8" height="16"/>
</g>
<g id="Spain-7.459459664_1_" transform="translate(98.296875,0)">
	<rect id="Spain-7.459459664" x="260.6" y="79.6" class="st12" width="198.4" height="16"/>
</g>
<g id="Netherlands-4.58852731_1_" transform="translate(98.296875,0)">
	<rect id="Netherlands-4.58852731" x="260.6" y="99.6" class="st12" width="122" height="16"/>
</g>
<g id="Switzerland-6.63968996_1_" transform="translate(98.296875,0)">
	<rect id="Switzerland-6.63968996" x="260.6" y="119.6" class="st12" width="176.6" height="16"/>
</g>
<g id="Brazil-4.684451554_1_" transform="translate(98.296875,0)">
	<rect id="Brazil-4.684451554" x="260.6" y="139.6" class="st12" width="124.6" height="16"/>
</g>
<g id="Italy-6.869741589_1_" transform="translate(98.296875,0)">
	<rect id="Italy-6.869741589" x="260.6" y="159.6" class="st12" width="182.7" height="16"/>
</g>
<g id="Ireland-6.943525746_1_" transform="translate(98.296875,0)">
	<rect id="Ireland-6.943525746" x="260.6" y="179.6" class="st12" width="184.7" height="16"/>
</g>
<g id="Finland-4.538591058_1_" transform="translate(98.296875,0)">
	<rect id="Finland-4.538591058" x="260.6" y="199.6" class="st12" width="120.7" height="16"/>
</g>
<g id="Germany-6.03268766_1_" transform="translate(98.296875,0)">
	<rect id="Germany-6.03268766" x="260.6" y="219.6" class="st12" width="160.4" height="16"/>
</g>
<g id="UK-5.650414614_1_" transform="translate(98.296875,0)">
	<rect id="UK-5.650414614" x="260.6" y="239.6" class="st12" width="150.3" height="16"/>
</g>
<g id="France-6.58456573_1_" transform="translate(98.296875,0)">
	<rect id="France-6.58456573" x="260.6" y="259.6" class="st12" width="175.1" height="16"/>
</g>
<g id="South_Africa-7.472137242_1_" transform="translate(98.296875,0)">
	<rect id="South_Africa-7.472137242" x="260.6" y="279.6" class="st12" width="198.7" height="16"/>
</g>
<g id="Sweden-5.673160546_1_" transform="translate(98.296875,0)">
	<rect id="Sweden-5.673160546" x="260.6" y="299.6" class="st12" width="150.9" height="16"/>
</g>
<g id="Denmark-5.618941401_1_" transform="translate(98.296875,0)">
	<rect id="Denmark-5.618941401" x="260.6" y="319.6" class="st12" width="149.4" height="16"/>
</g>
<g id="Norway-4.604156366_1_" transform="translate(98.296875,0)">
	<rect id="Norway-4.604156366" x="260.6" y="339.6" class="st12" width="122.4" height="16"/>
</g>
<g id="Russia-4.134038807_1_" transform="translate(98.296875,0)">
	<rect id="Russia-4.134038807" x="260.6" y="359.6" class="st12" width="109.9" height="16"/>
</g>
<line class="st9" x1="246.1" y1="380.9" x2="246.1" y2="37.6"/>
<line class="st10" x1="215.4" y1="380.9" x2="215.4" y2="37.6"/>
<line class="st10" x1="179.7" y1="380.9" x2="179.7" y2="37.6"/>
<line class="st10" x1="144" y1="380.9" x2="144" y2="37.6"/>
<line class="st10" x1="108.3" y1="380.9" x2="108.3" y2="37.6"/>
<line class="st10" x1="72.6" y1="380.9" x2="72.6" y2="37.6"/>
<line class="st10" x1="36.9" y1="380.9" x2="36.9" y2="37.6"/>
<path class="st0" d="M31.7,380.9V37.6h219.3v343.3"/>
<g id="US-61.44_1_" transform="translate(98.296875,0)">
	<rect id="US-61.44" x="-76" y="39.6" class="st11" width="224.3" height="16.1"/>
</g>
<g id="Canada-60.98_1_" transform="translate(98.296875,0)">
	<rect id="Canada-60.98" x="-69.9" y="59.6" class="st12" width="217.7" height="15.7"/>
</g>
<g id="Spain-60.58_1_" transform="translate(98.296875,0)">
	<rect id="Spain-60.58" x="-68.5" y="79.7" class="st12" width="216.3" height="15.7"/>
</g>
<g id="Netherlands-59.23_1_" transform="translate(98.296875,0)">
	<rect id="Netherlands-59.23" x="-63.7" y="99.6" class="st12" width="211.5" height="15.7"/>
</g>
<g id="Switzerland-58.88_1_" transform="translate(98.296875,0)">
	<rect id="Switzerland-58.88" x="-62.4" y="119.6" class="st12" width="210.2" height="15.7"/>
</g>
<g id="Brazil-58.40_1_" transform="translate(98.296875,0)">
	<rect id="Brazil-58.40" x="-60.7" y="139.5" class="st12" width="208.5" height="15.7"/>
</g>
<g id="Italy-57.99_1_" transform="translate(98.296875,0)">
	<rect id="Italy-57.99" x="-59.2" y="159.4" class="st12" width="207" height="15.7"/>
</g>
<g id="Ireland-57.53_1_" transform="translate(98.296875,0)">
	<rect id="Ireland-57.53" x="-57.6" y="179.4" class="st12" width="205.4" height="15.7"/>
</g>
<g id="Finland-57.47_1_" transform="translate(98.296875,0)">
	<rect id="Finland-57.47" x="-57.4" y="199.3" class="st12" width="205.2" height="15.7"/>
</g>
<g id="Germany-57.39_1_" transform="translate(98.296875,0)">
	<rect id="Germany-57.39" x="-57.1" y="219.2" class="st12" width="204.9" height="15.7"/>
</g>
<g id="UK-57.01_1_" transform="translate(98.296875,0)">
	<rect id="UK-57.01" x="-55.7" y="239.2" class="st12" width="203.5" height="15.7"/>
</g>
<g id="France-56.83_1_" transform="translate(98.296875,0)">
	<rect id="France-56.83" x="-55.1" y="259.1" class="st12" width="202.9" height="15.7"/>
</g>
<g id="South_Africa-56.07_1_" transform="translate(98.296875,0)">
	<rect id="South_Africa-56.07" x="-52.4" y="279" class="st12" width="200.2" height="15.7"/>
</g>
<g id="Sweden-55.85_1_" transform="translate(98.296875,0)">
	<rect id="Sweden-55.85" x="-51.6" y="299" class="st12" width="199.4" height="15.7"/>
</g>
<g id="Denmark-54.96_1_" transform="translate(98.296875,0)">
	<rect id="Denmark-54.96" x="-48.4" y="318.9" class="st12" width="196.2" height="15.7"/>
</g>
<g id="Norway-53.99_1_" transform="translate(98.296875,0)">
	<rect id="Norway-53.99" x="-45" y="338.8" class="st12" width="192.7" height="15.7"/>
</g>
<g id="Russia-51.47_1_" transform="translate(98.296875,0)">
	<rect id="Russia-51.47" x="-36" y="358.8" class="st12" width="183.7" height="15.7"/>
</g>
<g>
	<text transform="matrix(0.9533 0 0 1 244.9012 403.1801)" class="st4 st2 st8">0</text>
</g>
<g>
	<text transform="matrix(0.9533 0 0 1 206.6717 403.1801)" class="st4 st2 st8">10</text>
</g>
<g>
	<text transform="matrix(0.9533 0 0 1 169.7742 403.1801)" class="st4 st2 st8">20</text>
</g>
<g>
	<text transform="matrix(0.9533 0 0 1 133.9949 403.1801)" class="st4 st2 st8">30</text>
</g>
<g>
	<text transform="matrix(0.9533 0 0 1 99.0887 403.1801)" class="st4 st2 st8">40</text>
</g>
<g>
	<text transform="matrix(0.9533 0 0 1 62.6961 403.1801)" class="st4 st2 st8">50</text>
</g>
<g>
	<text transform="matrix(0.9533 0 0 1 27.3992 403.1801)" class="st4 st2 st8">60</text>
</g>
<g transform="translate(98.296875,0)">
	<g transform="translate(0,17)">
		<line class="st10" x1="-483.9" y1="204.6" x2="-483.9" y2="204.6"/>
		<rect x="-506.5" y="195.9" class="st0" width="19.6" height="18.1"/>
		<text transform="matrix(1 0 0 1 -506.4644 210.4009)" class="st4 st2 st8">US</text>
	</g>
	<g transform="translate(0,37)">
		<line class="st10" x1="-467.8" y1="204.6" x2="-467.8" y2="204.6"/>
		<rect x="-522.5" y="195.9" class="st0" width="51.7" height="18.1"/>
		<text transform="matrix(1 0 0 1 -522.5474 210.4009)" class="st4 st2 st8">Canada</text>
	</g>
	<g transform="translate(0,57)">
		<line class="st10" x1="-474.5" y1="204.6" x2="-474.5" y2="204.6"/>
		<rect x="-515.8" y="195.9" class="st0" width="38.3" height="18.1"/>
		<text transform="matrix(1 0 0 1 -515.8334 210.4009)" class="st4 st2 st8">Spain</text>
	</g>
	<g transform="translate(0,77)">
		<line class="st10" x1="-451.5" y1="204.6" x2="-451.5" y2="204.6"/>
		<rect x="-538.9" y="195.9" class="st0" width="84.4" height="18.1"/>
		<text transform="matrix(1 0 0 1 -538.8552 210.4009)" class="st13"><tspan x="0" y="0" class="st4 st2 st8">Nether</tspan><tspan x="47.7" y="0" class="st4 st2 st8">-</tspan></text>
	</g>
	<g transform="translate(0,97)">
		<line class="st10" x1="-453.4" y1="204.6" x2="-453.4" y2="204.6"/>
		<rect x="-536.9" y="195.9" class="st0" width="80.5" height="18.1"/>
		<text transform="matrix(1 0 0 1 -536.9473 210.4009)" class="st13"><tspan x="0" y="0" class="st4 st2 st8">Switzer</tspan><tspan x="51" y="0" class="st4 st2 st8">-</tspan></text>
	</g>
	<g transform="translate(0,117)">
		<line class="st10" x1="-474.4" y1="204.6" x2="-474.4" y2="204.6"/>
		<rect x="-515.9" y="195.9" class="st0" width="38.5" height="18.1"/>
		<text transform="matrix(1 0 0 1 -515.9055 210.4009)" class="st4 st2 st8">Brazi</text>
	</g>
	<g transform="translate(0,137)">
		<line class="st10" x1="-478.9" y1="204.6" x2="-478.9" y2="204.6"/>
		<rect x="-511.5" y="195.9" class="st0" width="29.6" height="18.1"/>
		<text transform="matrix(1 0 0 1 -511.4773 210.4009)" class="st4 st2 st8">Ital</text>
	</g>
	<g transform="translate(0,157)">
		<line class="st10" x1="-470" y1="204.6" x2="-470" y2="204.6"/>
		<rect x="-520.4" y="195.9" class="st0" width="47.4" height="18.1"/>
		<text transform="matrix(1 0 0 1 -520.3515 210.4009)" class="st13"><tspan x="0" y="0" class="st4 st2 st8">Ire</tspan><tspan x="17.9" y="0" class="st4 st2 st8">-</tspan></text>
	</g>
	<g transform="translate(0,177)">
		<line class="st10" x1="-468.2" y1="204.6" x2="-468.2" y2="204.6"/>
		<rect x="-522.2" y="195.9" class="st0" width="51" height="18.1"/>
		<text transform="matrix(1 0 0 1 -522.1514 210.4009)" class="st4 st2 st8">Finland</text>
	</g>
	<g transform="translate(0,197)">
		<line class="st10" x1="-462.4" y1="204.6" x2="-462.4" y2="204.6"/>
		<rect x="-528" y="195.9" class="st0" width="62.6" height="18.1"/>
		<text transform="matrix(1 0 0 1 -527.9562 210.4009)" class="st4 st2 st8">Germany</text>
	</g>
	<g transform="translate(0,217)">
		<line class="st10" x1="-483.2" y1="204.6" x2="-483.2" y2="204.6"/>
		<rect x="-507.1" y="195.9" class="st0" width="20.9" height="18.1"/>
		<text transform="matrix(1 0 0 1 -507.1125 210.4009)" class="st4 st2 st8">UK</text>
	</g>
	<g transform="translate(0,237)">
		<line class="st10" x1="-470.5" y1="204.6" x2="-470.5" y2="204.6"/>
		<rect x="-519.8" y="195.9" class="st0" width="46.3" height="18.1"/>
		<text transform="matrix(1 0 0 1 -519.8384 210.4009)" class="st4 st2 st8">Franc</text>
	</g>
	<g transform="translate(0,257)">
		<line class="st10" x1="-451" y1="204.6" x2="-451" y2="204.6"/>
		<rect x="-539.3" y="195.9" class="st0" width="85.3" height="18.1"/>
		<text transform="matrix(1 0 0 1 -539.3229 210.4009)" class="st4 st2 st8">South </text>
	</g>
	<g transform="translate(0,277)">
		<line class="st10" x1="-466.7" y1="204.6" x2="-466.7" y2="204.6"/>
		<rect x="-523.7" y="195.9" class="st0" width="54" height="18.1"/>
		<text transform="matrix(1 0 0 1 -523.6813 210.4009)" class="st4 st2 st8">Sweden</text>
	</g>
	<g transform="translate(0,297)">
		<line class="st10" x1="-462.4" y1="204.6" x2="-462.4" y2="204.6"/>
		<rect x="-528" y="195.9" class="st0" width="62.6" height="18.1"/>
		<text transform="matrix(1 0 0 1 -527.9922 210.4009)" class="st4 st2 st8">Denmark</text>
	</g>
	<g transform="translate(0,317)">
		<line class="st10" x1="-467.2" y1="204.6" x2="-467.2" y2="204.6"/>
		<rect x="-523.2" y="195.9" class="st0" width="53" height="18.1"/>
		<text transform="matrix(1 0 0 1 -523.1864 210.4009)" class="st4 st2 st8">Norwa</text>
	</g>
	<g transform="translate(0,337)">
		<line class="st10" x1="-471.4" y1="204.6" x2="-471.4" y2="204.6"/>
		<rect x="-519" y="195.9" class="st0" width="44.6" height="18.1"/>
		<text transform="matrix(1 0 0 1 -518.9833 210.4009)" class="st4 st2 st8">Russi</text>
	</g>
	<path class="st0" d="M-451.1,204.6L-451.1,204.6v354.8l0,0"/>
</g>
<text transform="matrix(0.9533 0 0 1 -155.0876 595.4767)" class="st4 st2" style="font-size:18.8827px;">60</text>
<g>
	<rect x="308.7" y="4.6" class="st0" width="313.8" height="30.6"/>
	<text transform="matrix(1 0 0 1 400.1367 22.391)" class="st1 st2 st3">Average tenure</text>
</g>
</svg>
