<?xml version="1.0" encoding="utf-8"?>
<!-- Generator: Adobe Illustrator 19.2.1, SVG Export Plug-In . SVG Version: 6.00 Build 0)  -->
<svg version="1.1" id="webchart" xmlns="http://www.w3.org/2000/svg" xmlns:xlink="http://www.w3.org/1999/xlink" x="0px" y="0px"
	 viewBox="0 0 597 374" style="enable-background:new 0 0 597 374;" xml:space="preserve">
<style type="text/css">
	.st0{fill:#E2E2E2;}
	.st1{fill:none;}
	.st2{enable-background:new    ;}
	.st3{fill:#3B3D3B;}
	.st4{font-family:'Metric-Regular';}
	.st5{font-size:25px;}
	.st6{clip-path:url(#SVGID_2_);}
	.st7{fill:#6B6E68;}
	.st8{font-size:18px;}
	.st9{font-family:'Metric-Medium';}
	.st10{font-size:24px;}
	.st11{fill:#9E2F50;}
	.st12{font-size:14px;}
	.st13{fill:#DACFC5;}
	.st14{fill:#636363;}
	.st15{font-size:21px;}
	.st16{fill:#F9F9F9;}
	.st17{font-size:20px;}
	.st18{fill:#5E5B5B;}
	.st19{fill:#FCFCFC;}
	.st20{fill:none;stroke:#000000;stroke-width:0.5;stroke-miterlimit:10;}
</style>
<rect x="362.6" y="1" class="st0" width="234.4" height="370.2"/>
<rect x="7" y="3.8" class="st1" width="345.5" height="66.2"/>
<text transform="matrix(1.03 0 0 1 7 24)" class="st2"><tspan x="0" y="0" class="st3 st4 st5">Compared to an European direc</tspan><tspan x="303.8" y="0" class="st3 st4 st5">-</tspan><tspan x="0" y="23" class="st3 st4 st5">tor, the average US director is . . .</tspan></text>
<g>
	<defs>
		<rect id="SVGID_1_" x="1" y="753" width="88" height="15"/>
	</defs>
	<clipPath id="SVGID_2_">
		<use xlink:href="#SVGID_1_"  style="overflow:visible;"/>
	</clipPath>
	<g class="st6">
		<text transform="matrix(1 0 0 1 38.9531 763.5)" style="font-family:'Calibri'; font-size:12px;">!&quot;#$$%$$</text>
	</g>
	<g class="st6">
		<text transform="matrix(1 0 0 1 7.0386 763.5)" style="font-family:'Calibri'; font-size:12px;">&amp;&amp;&amp;&amp;&amp;&amp;&amp;&amp;&amp;&amp;&amp;&amp;</text>
	</g>
	<g class="st6">
		<text transform="matrix(1 0 0 1 40 763.5)" style="font-family:'Calibri'; font-size:12px;">&amp;</text>
	</g>
</g>
<text transform="matrix(1 0 0 1 10 87.25)" class="st2"><tspan x="0" y="0" class="st7 st4 st8">. . . </tspan><tspan x="21.2" y="0" class="st7 st9 st10">4</tspan><tspan x="33.6" y="0" class="st7 st4 st8"> years older</tspan></text>
<g>
	<rect x="14.3" y="100.9" class="st11" width="12" height="12"/>
	<rect x="70.3" y="100.9" class="st11" width="12" height="12"/>
	<rect x="51.7" y="100.9" class="st11" width="12" height="12"/>
	<rect x="33" y="100.9" class="st11" width="12" height="12"/>
</g>
<text transform="matrix(1 0 0 1 10 370.1812)" class="st7 st4 st12">Source: FT analysis of ISS Analytics data</text>
<g transform="translate(571,384)">
	<path class="st13" d="M-11-13.8h7.6v-0.6c-0.5,0-0.9,0-1.2-0.1c-0.3,0-0.5-0.1-0.7-0.3c-0.2-0.1-0.3-0.3-0.4-0.6
		c-0.1-0.2-0.1-0.6-0.1-1v-5.2h1.2c1.1,0,1.9,0.2,2.3,0.5c0.5,0.3,0.8,0.9,1,1.9h0.6v-5.6h-0.5c-0.1,0.6-0.3,1-0.5,1.3
		c-0.2,0.3-0.5,0.5-1,0.6c-0.4,0.1-1,0.2-1.8,0.2h-1.2v-5.1c0-0.3,0.1-0.5,0.2-0.7c0.1-0.1,0.3-0.2,0.7-0.2h2.4c0.8,0,1.4,0,1.9,0.1
		c0.5,0.1,0.9,0.2,1.2,0.4C1-28,1.3-27.8,1.4-27.5c0.2,0.3,0.3,0.7,0.5,1.1h0.7l-0.2-3.4H-11v0.6c0.4,0,0.8,0.1,1,0.1
		s0.4,0.1,0.6,0.3c0.2,0.1,0.3,0.3,0.4,0.5s0.1,0.6,0.1,1v10.9c0,0.4,0,0.8-0.1,1s-0.2,0.4-0.4,0.6c-0.2,0.1-0.4,0.2-0.6,0.3
		c-0.2,0-0.6,0.1-1,0.1C-11-14.4-11-13.8-11-13.8z M3.2-26.3H4c0.3-0.9,0.6-1.5,1-1.8c0.4-0.4,1.1-0.5,1.9-0.5h2v12.3
		c0,0.4,0,0.8-0.1,1s-0.2,0.4-0.4,0.6c-0.2,0.1-0.4,0.2-0.7,0.3c-0.3,0-0.6,0.1-1.1,0.1v0.5h7.7v-0.6c-0.5,0-0.9,0-1.1-0.1
		c-0.3,0-0.5-0.1-0.7-0.3c-0.2-0.1-0.3-0.3-0.4-0.6C12-15.6,12-16,12-16.4v-12.2h2c0.8,0,1.5,0.2,1.9,0.5c0.4,0.4,0.8,1,1,1.8h0.8
		l-0.2-3.5H3.6L3.2-26.3z"/>
</g>
<text transform="matrix(1 0 0 1 9.9998 143.0833)" class="st2"><tspan x="0" y="0" class="st7 st4 st8">. . . serving a tenure </tspan><tspan x="137.1" y="0" class="st7 st9 st10">2</tspan><tspan x="147.9" y="0" class="st7 st4 st8"> years longer</tspan></text>
<g>
	<rect x="14.3" y="157.4" class="st11" width="12" height="12"/>
	<rect x="33" y="157.4" class="st11" width="12" height="12"/>
</g>
<text transform="matrix(1 0 0 1 9.9998 198.3105)" class="st2"><tspan x="0" y="0" class="st7 st4 st8">. . . </tspan><tspan x="21.2" y="0" class="st7 st9 st10">10%</tspan><tspan x="57.9" y="0" class="st7 st4 st8"> more likely to be a man</tspan></text>
<g>
	<rect x="14.3" y="213.9" class="st11" width="12" height="12"/>
	<rect x="68.8" y="213.9" class="st11" width="12" height="12"/>
	<rect x="50.6" y="213.9" class="st11" width="12" height="12"/>
	<rect x="32.5" y="213.9" class="st11" width="12" height="12"/>
	<rect x="86.9" y="213.9" class="st11" width="12" height="12"/>
	<rect x="141.4" y="213.9" class="st11" width="12" height="12"/>
	<rect x="123.2" y="213.9" class="st11" width="12" height="12"/>
	<rect x="105.1" y="213.9" class="st11" width="12" height="12"/>
	<rect x="177.6" y="213.9" class="st11" width="12" height="12"/>
	<rect x="159.5" y="213.9" class="st11" width="12" height="12"/>
</g>
<text transform="matrix(1 0 0 1 10.0001 254.7498)" class="st2"><tspan x="0" y="0" class="st7 st4 st8">. . .</tspan><tspan x="17.2" y="0" class="st7 st9 st8"> </tspan><tspan x="21.2" y="0" class="st7 st9 st10">17%</tspan><tspan x="55.8" y="0" class="st7 st4 st8"> more likely to be over 65</tspan></text>
<g>
	<rect x="14.3" y="270.4" class="st11" width="12" height="12"/>
	<rect x="33" y="270.4" class="st11" width="12" height="12"/>
	<rect x="51" y="270.4" class="st11" width="12" height="12"/>
	<rect x="105.4" y="270.4" class="st11" width="12" height="12"/>
	<rect x="87.3" y="270.4" class="st11" width="12" height="12"/>
	<rect x="69.1" y="270.4" class="st11" width="12" height="12"/>
	<rect x="123.6" y="270.4" class="st11" width="12" height="12"/>
	<rect x="178" y="270.4" class="st11" width="12" height="12"/>
	<rect x="159.9" y="270.4" class="st11" width="12" height="12"/>
	<rect x="141.7" y="270.4" class="st11" width="12" height="12"/>
	<rect x="214.3" y="270.4" class="st11" width="12" height="12"/>
	<rect x="196.2" y="270.4" class="st11" width="12" height="12"/>
	<rect x="232" y="270.4" class="st11" width="12" height="12"/>
	<rect x="288" y="270.4" class="st11" width="12" height="12"/>
	<rect x="269.3" y="270.4" class="st11" width="12" height="12"/>
	<rect x="250.6" y="270.4" class="st11" width="12" height="12"/>
	<rect x="308" y="270.4" class="st11" width="12" height="12"/>
</g>
<text transform="matrix(1 0 0 1 10.0001 310.5833)" class="st2"><tspan x="0" y="0" class="st7 st4 st8">. . . </tspan><tspan x="21.2" y="0" class="st7 st9 st10">2%</tspan><tspan x="47.8" y="0" class="st7 st4 st8"> more likely to be over the life expectancy </tspan></text>
<g>
	<rect x="14.3" y="326.9" class="st11" width="12" height="12"/>
	<rect x="33" y="326.9" class="st11" width="12" height="12"/>
</g>
<rect x="490.6" y="43" class="st11" width="25" height="20"/>
<rect x="406.5" y="43" class="st14" width="61.6" height="20"/>
<rect x="406.5" y="97" class="st1" width="94.4" height="17.9"/>
<text transform="matrix(1 0 0 1 444.3673 110.6626)" class="st14 st4 st15">57</text>
<rect x="407.5" y="154.3" class="st1" width="94.4" height="17.9"/>
<text transform="matrix(1 0 0 1 449.6514 167.9172)" class="st14 st4 st15">6</text>
<rect x="403.5" y="212" class="st1" width="94.4" height="17.9"/>
<text transform="matrix(1 0 0 1 441.3672 225.6919)" class="st14 st4 st15">75</text>
<rect x="447.4" y="324" class="st1" width="94.4" height="45.3"/>
<text transform="matrix(1 0 0 1 489.9325 337.6709)" class="st11 st4 st15">2</text>
<rect x="401.5" y="268.5" class="st1" width="94.4" height="17.9"/>
<text transform="matrix(1 0 0 1 440.1446 282.1362)" class="st14 st4 st15">18</text>
<rect x="465.5" y="97" class="st1" width="54.2" height="18.3"/>
<text transform="matrix(1 0 0 1 484.0799 110.6626)" class="st11 st4 st15">61</text>
<rect x="446.9" y="154.3" class="st1" width="93.4" height="17.1"/>
<text transform="matrix(1 0 0 1 488.4812 167.9149)" class="st11 st4 st15">8</text>
<rect x="447.4" y="211.5" class="st1" width="94.4" height="45.3"/>
<text transform="matrix(1 0 0 1 484.7986 225.167)" class="st11 st4 st15">85</text>
<rect x="404.5" y="324" class="st1" width="94.4" height="45.3"/>
<text transform="matrix(1 0 0 1 446.0634 337.6709)" class="st14 st4 st15">0</text>
<rect x="447.4" y="268.7" class="st1" width="94.4" height="45.3"/>
<text transform="matrix(1 0 0 1 485.324 282.3374)" class="st11 st4 st15">35</text>
<g>
	<rect x="377.9" y="45" class="st1" width="169" height="32"/>
	<text transform="matrix(1 0 0 1 410.6315 58.019)"><tspan x="0" y="0" class="st16 st4 st17">Europe</tspan><tspan x="55.1" y="0" class="st18 st4 st17">  v  </tspan><tspan x="81.8" y="0" class="st19 st4 st17">US </tspan></text>
</g>
<rect x="381" y="78.7" class="st1" width="186.4" height="18.6"/>
<text transform="matrix(0.94 0 0 1 435.0273 87.7886)" class="st18 st9 st12">Average age</text>
<rect x="381" y="134.5" class="st1" width="186.4" height="18.6"/>
<text transform="matrix(0.94 0 0 1 424.0517 143.6216)" class="st18 st9 st12">Average tenure</text>
<rect x="381" y="191.4" class="st1" width="186.4" height="18.6"/>
<text transform="matrix(0.94 0 0 1 451.9306 200.4634)" class="st18 st9 st12">Men (%)</text>
<rect x="381" y="246.2" class="st1" width="186.4" height="18.6"/>
<text transform="matrix(0.94 0 0 1 441.4101 255.2886)" class="st18 st9 st12">Over 65 (%)</text>
<rect x="381" y="302" class="st1" width="186.4" height="18.6"/>
<text transform="matrix(0.94 0 0 1 397.5409 311.1216)" class="st18 st9 st12">Over life expectancy (%)</text>
<line class="st20" x1="445.7" y1="92.2" x2="497.1" y2="92.2"/>
<line class="st20" x1="447.5" y1="148.1" x2="498.9" y2="148.1"/>
<line class="st20" x1="447.5" y1="204.3" x2="498.9" y2="204.3"/>
<line class="st20" x1="447.5" y1="259.8" x2="498.9" y2="259.8"/>
<line class="st20" x1="447.5" y1="316.6" x2="498.9" y2="316.6"/>
</svg>
