<?xml version="1.0" encoding="utf-8"?>
<!-- Generator: Adobe Illustrator 19.2.1, SVG Export Plug-In . SVG Version: 6.00 Build 0)  -->
<svg version="1.1" id="webchart" xmlns="http://www.w3.org/2000/svg" xmlns:xlink="http://www.w3.org/1999/xlink" x="0px" y="0px"
	 viewBox="0 0 618 430.5" style="enable-background:new 0 0 618 430.5;" xml:space="preserve">
<style type="text/css">
	.st0{fill:none;}
	.st1{fill:#3B3D3B;}
	.st2{font-family:'Metric-Regular';}
	.st3{font-size:22px;}
	.st4{fill:#6B6E68;}
	.st5{font-size:14px;}
	.st6{fill:#DACFC5;}
	.st7{fill:none;stroke:#C3BCB0;stroke-dasharray:1,2;}
	.st8{enable-background:new    ;}
	.st9{font-size:18px;}
	.st10{fill:none;stroke:#9BA497;stroke-dasharray:1,0;}
	.st11{fill:#A5526A;}
</style>
<g>
	
		<rect x="2.9" y="4.7" transform="matrix(1 -3.655907e-03 3.655907e-03 1 -7.223472e-02 0.569)" class="st0" width="305.3" height="30.6"/>
	<text transform="matrix(1 0 0 1 102.3829 21.9291)" class="st1 st2 st3">Average age</text>
</g>
<text transform="matrix(1 0 0 1 6.4079 427.6597)" class="st4 st2 st5">Source: FT analysis of ISS Analytics data</text>
<g transform="translate(296,434)">
	<path class="st6" d="M268.9-4.5h7.6v-0.6c-0.5,0-0.9,0-1.2-0.1c-0.3,0-0.5-0.1-0.7-0.3c-0.2-0.1-0.3-0.3-0.4-0.6
		c-0.1-0.2-0.1-0.6-0.1-1v-5.2h1.2c1.1,0,1.9,0.2,2.3,0.5c0.5,0.3,0.8,0.9,1,1.9h0.6v-5.6h-0.5c-0.1,0.6-0.3,1-0.5,1.3
		c-0.2,0.3-0.5,0.5-1,0.6c-0.4,0.1-1,0.2-1.8,0.2h-1.2v-5.1c0-0.3,0.1-0.5,0.2-0.7c0.1-0.1,0.3-0.2,0.7-0.2h2.4c0.8,0,1.4,0,1.9,0.1
		s0.9,0.2,1.2,0.4c0.3,0.2,0.6,0.4,0.7,0.7c0.2,0.3,0.3,0.7,0.5,1.1h0.7l-0.2-3.4h-13.4v0.6c0.4,0,0.8,0.1,1,0.1s0.4,0.1,0.6,0.3
		c0.2,0.1,0.3,0.3,0.4,0.5c0.1,0.2,0.1,0.6,0.1,1v10.9c0,0.4,0,0.8-0.1,1s-0.2,0.4-0.4,0.6c-0.2,0.1-0.4,0.2-0.6,0.3
		c-0.2,0-0.6,0.1-1,0.1C268.9-5.1,268.9-4.5,268.9-4.5z M283.1-17h0.8c0.3-0.9,0.6-1.5,1-1.8c0.4-0.4,1.1-0.5,1.9-0.5h2V-7
		c0,0.4,0,0.8-0.1,1c-0.1,0.2-0.2,0.4-0.4,0.6c-0.2,0.1-0.4,0.2-0.7,0.3c-0.3,0-0.6,0.1-1.1,0.1v0.5h7.7v-0.6c-0.5,0-0.9,0-1.1-0.1
		c-0.3,0-0.5-0.1-0.7-0.3c-0.2-0.1-0.3-0.3-0.4-0.6c-0.1-0.2-0.1-0.6-0.1-1v-12.2h2c0.8,0,1.5,0.2,1.9,0.5c0.4,0.4,0.8,1,1,1.8h0.8
		l-0.2-3.5h-13.9L283.1-17z"/>
</g>
<g transform="translate(98.296875,0)">
	<g transform="translate(0,17)">
		<line class="st7" x1="-483.9" y1="204.6" x2="-483.9" y2="204.6"/>
		<rect x="-506.5" y="195.9" class="st0" width="19.6" height="18.1"/>
		<text transform="matrix(1 0 0 1 -506.4644 210.4009)" class="st4 st2 st9">US</text>
	</g>
	<g transform="translate(0,37)">
		<line class="st7" x1="-467.8" y1="204.6" x2="-467.8" y2="204.6"/>
		<rect x="-522.5" y="195.9" class="st0" width="51.7" height="18.1"/>
		<text transform="matrix(1 0 0 1 -522.5474 210.4009)" class="st4 st2 st9">Canada</text>
	</g>
	<g transform="translate(0,57)">
		<line class="st7" x1="-474.5" y1="204.6" x2="-474.5" y2="204.6"/>
		<rect x="-515.8" y="195.9" class="st0" width="38.3" height="18.1"/>
		<text transform="matrix(1 0 0 1 -515.8334 210.4009)" class="st4 st2 st9">Spain</text>
	</g>
	<g transform="translate(0,77)">
		<line class="st7" x1="-451.5" y1="204.6" x2="-451.5" y2="204.6"/>
		<rect x="-538.9" y="195.9" class="st0" width="84.4" height="18.1"/>
		<text transform="matrix(1 0 0 1 -538.8552 210.4009)" class="st8"><tspan x="0" y="0" class="st4 st2 st9">Nether</tspan><tspan x="47.7" y="0" class="st4 st2 st9">-</tspan></text>
	</g>
	<g transform="translate(0,97)">
		<line class="st7" x1="-453.4" y1="204.6" x2="-453.4" y2="204.6"/>
		<rect x="-536.9" y="195.9" class="st0" width="80.5" height="18.1"/>
		<text transform="matrix(1 0 0 1 -536.9473 210.4009)" class="st8"><tspan x="0" y="0" class="st4 st2 st9">Switzer</tspan><tspan x="51" y="0" class="st4 st2 st9">-</tspan></text>
	</g>
	<g transform="translate(0,117)">
		<line class="st7" x1="-474.4" y1="204.6" x2="-474.4" y2="204.6"/>
		<rect x="-515.9" y="195.9" class="st0" width="38.5" height="18.1"/>
		<text transform="matrix(1 0 0 1 -515.9055 210.4009)" class="st4 st2 st9">Brazi</text>
	</g>
	<g transform="translate(0,137)">
		<line class="st7" x1="-478.9" y1="204.6" x2="-478.9" y2="204.6"/>
		<rect x="-511.5" y="195.9" class="st0" width="29.6" height="18.1"/>
		<text transform="matrix(1 0 0 1 -511.4773 210.4009)" class="st4 st2 st9">Ital</text>
	</g>
	<g transform="translate(0,157)">
		<line class="st7" x1="-470" y1="204.6" x2="-470" y2="204.6"/>
		<rect x="-520.4" y="195.9" class="st0" width="47.4" height="18.1"/>
		<text transform="matrix(1 0 0 1 -520.3515 210.4009)" class="st8"><tspan x="0" y="0" class="st4 st2 st9">Ire</tspan><tspan x="17.9" y="0" class="st4 st2 st9">-</tspan></text>
	</g>
	<g transform="translate(0,177)">
		<line class="st7" x1="-468.2" y1="204.6" x2="-468.2" y2="204.6"/>
		<rect x="-522.2" y="195.9" class="st0" width="51" height="18.1"/>
		<text transform="matrix(1 0 0 1 -522.1514 210.4009)" class="st4 st2 st9">Finland</text>
	</g>
	<g transform="translate(0,197)">
		<line class="st7" x1="-462.4" y1="204.6" x2="-462.4" y2="204.6"/>
		<rect x="-528" y="195.9" class="st0" width="62.6" height="18.1"/>
		<text transform="matrix(1 0 0 1 -527.9562 210.4009)" class="st4 st2 st9">Germany</text>
	</g>
	<g transform="translate(0,217)">
		<line class="st7" x1="-483.2" y1="204.6" x2="-483.2" y2="204.6"/>
		<rect x="-507.1" y="195.9" class="st0" width="20.9" height="18.1"/>
		<text transform="matrix(1 0 0 1 -507.1125 210.4009)" class="st4 st2 st9">UK</text>
	</g>
	<g transform="translate(0,237)">
		<line class="st7" x1="-470.5" y1="204.6" x2="-470.5" y2="204.6"/>
		<rect x="-519.8" y="195.9" class="st0" width="46.3" height="18.1"/>
		<text transform="matrix(1 0 0 1 -519.8384 210.4009)" class="st4 st2 st9">Franc</text>
	</g>
	<g transform="translate(0,257)">
		<line class="st7" x1="-451" y1="204.6" x2="-451" y2="204.6"/>
		<rect x="-539.3" y="195.9" class="st0" width="85.3" height="18.1"/>
		<text transform="matrix(1 0 0 1 -539.3229 210.4009)" class="st4 st2 st9">South </text>
	</g>
	<g transform="translate(0,277)">
		<line class="st7" x1="-466.7" y1="204.6" x2="-466.7" y2="204.6"/>
		<rect x="-523.7" y="195.9" class="st0" width="54" height="18.1"/>
		<text transform="matrix(1 0 0 1 -523.6813 210.4009)" class="st4 st2 st9">Sweden</text>
	</g>
	<g transform="translate(0,297)">
		<line class="st7" x1="-462.4" y1="204.6" x2="-462.4" y2="204.6"/>
		<rect x="-528" y="195.9" class="st0" width="62.6" height="18.1"/>
		<text transform="matrix(1 0 0 1 -527.9922 210.4009)" class="st4 st2 st9">Denmark</text>
	</g>
	<g transform="translate(0,317)">
		<line class="st7" x1="-467.2" y1="204.6" x2="-467.2" y2="204.6"/>
		<rect x="-523.2" y="195.9" class="st0" width="53" height="18.1"/>
		<text transform="matrix(1 0 0 1 -523.1864 210.4009)" class="st4 st2 st9">Norwa</text>
	</g>
	<g transform="translate(0,337)">
		<line class="st7" x1="-471.4" y1="204.6" x2="-471.4" y2="204.6"/>
		<rect x="-519" y="195.9" class="st0" width="44.6" height="18.1"/>
		<text transform="matrix(1 0 0 1 -518.9833 210.4009)" class="st4 st2 st9">Russi</text>
	</g>
	<path class="st0" d="M-451.1,204.6L-451.1,204.6v354.8l0,0"/>
</g>
<text transform="matrix(0.9533 0 0 1 -155.0876 595.4767)" class="st4 st2" style="font-size:18.8827px;">60</text>
<g>
	<rect x="308.7" y="4.6" class="st0" width="313.8" height="30.6"/>
	<text transform="matrix(1 0 0 1 400.1367 22.391)" class="st1 st2 st3">Average tenure</text>
</g>
<rect x="-70" y="-21" class="st0" width="425" height="450"/>
<rect id="webChart" x="209" y="33.2" class="st0" width="380" height="366.8"/>
<g transform="translate(0,24.5)">
	<line class="st7" x1="385.4" y1="33.2" x2="385.4" y2="33.2"/>
	<text transform="matrix(1 0 0 1 290.8104 39.01)" class="st4 st2 st9">Energy</text>
</g>
<g transform="translate(0,58.5)">
	<line class="st7" x1="385.4" y1="33.2" x2="385.4" y2="33.2"/>
	<text transform="matrix(1 0 0 1 281.2256 39.01)" class="st4 st2 st9">Financials</text>
</g>
<g transform="translate(0,92.5)">
	<line class="st7" x1="385.4" y1="33.2" x2="385.4" y2="33.2"/>
	<text transform="matrix(1 0 0 1 292.1968 39.01)" class="st4 st2 st9">Health</text>
</g>
<g transform="translate(0,126.5)">
	<line class="st7" x1="385.4" y1="33.2" x2="385.4" y2="33.2"/>
	<text transform="matrix(1 0 0 1 279.3629 39.01)" class="st4 st2 st9">Industrials</text>
</g>
<g transform="translate(0,160.5)">
	<line class="st7" x1="385.4" y1="33.2" x2="385.4" y2="33.2"/>
	<text transform="matrix(1 0 0 1 283.7095 39.01)" class="st4 st2 st9">Materials</text>
</g>
<g transform="translate(0,194.5)">
	<line class="st7" x1="385.4" y1="33.2" x2="385.4" y2="33.2"/>
	<text transform="matrix(1 0 0 1 288.9475 39.01)" class="st4 st2 st9">Utilities</text>
</g>
<g transform="translate(0,228.5)">
	<line class="st7" x1="385.4" y1="33.2" x2="385.4" y2="33.2"/>
	<text transform="matrix(1 0 0 1 308.1537 39.01)" class="st4 st2 st9">IT</text>
</g>
<g transform="translate(0,262.5)">
	<line class="st7" x1="385.4" y1="33.2" x2="385.4" y2="33.2"/>
	<text transform="matrix(1 0 0 1 278.7234 30.01)" class="st8"><tspan x="0" y="0" class="st4 st2 st9">Consumer</tspan><tspan x="-10.1" y="16" class="st4 st2 st9">discretionary</tspan></text>
</g>
<g transform="translate(0,296.5)">
	<line class="st7" x1="385.4" y1="25.2" x2="385.4" y2="25.2"/>
	<text transform="matrix(1 0 0 1 278.2072 30.01)" class="st8"><tspan x="0" y="0" class="st4 st2 st9">Consumer</tspan><tspan x="10.5" y="16" class="st4 st2 st9">staples</tspan></text>
</g>
<g transform="translate(0,330.5)">
	<line class="st7" x1="385.4" y1="33.2" x2="385.4" y2="33.2"/>
	<text transform="matrix(1 0 0 1 279.9478 39.01)" class="st4 st2 st9">Telecomm</text>
</g>
<path class="st0" d="M385.4,33.2L385.4,33.2V388l0,0"/>
<g transform="translate(10,0)">
	<g transform="translate(166.359375,0)">
		<line class="st10" x1="209" y1="33.2" x2="209" y2="388"/>
		<text transform="matrix(1 0 0 1 204.1581 403.78)" class="st4 st2 st9">0</text>
	</g>
	<g transform="translate(191.44026199494948,0)">
		<line class="st7" x1="209" y1="33.2" x2="209" y2="388"/>
		<text transform="matrix(1 0 0 1 206.0391 403.78)" class="st4 st2 st9">1</text>
	</g>
	<g transform="translate(216.521148989899,0)">
		<line class="st7" x1="209" y1="33.2" x2="209" y2="388"/>
		<text transform="matrix(1 0 0 1 205.0041 403.78)" class="st4 st2 st9">2</text>
	</g>
	<g transform="translate(241.6020359848485,0)">
		<line class="st7" x1="209" y1="33.2" x2="209" y2="388"/>
		<text transform="matrix(1 0 0 1 205.067 403.78)" class="st4 st2 st9">3</text>
	</g>
	<g transform="translate(266.682922979798,0)">
		<line class="st7" x1="209" y1="33.2" x2="209" y2="388"/>
		<text transform="matrix(1 0 0 1 204.4281 403.78)" class="st4 st2 st9">4</text>
	</g>
	<g transform="translate(291.76380997474746,0)">
		<line class="st7" x1="209" y1="33.2" x2="209" y2="388"/>
		<text transform="matrix(1 0 0 1 204.986 403.78)" class="st4 st2 st9">5</text>
	</g>
	<g transform="translate(316.84469696969694,0)">
		<line class="st7" x1="209" y1="33.2" x2="209" y2="388"/>
		<text transform="matrix(1 0 0 1 204.662 403.78)" class="st4 st2 st9">6</text>
	</g>
	<g transform="translate(341.9255839646465,0)">
		<line class="st7" x1="209" y1="33.2" x2="209" y2="388"/>
		<text transform="matrix(1 0 0 1 205.0041 403.78)" class="st4 st2 st9">7</text>
	</g>
	<path class="st0" d="M375.4,388V33.2H574V388"/>
</g>
<g id="Energy-_7.00_1_" transform="translate(176.359375,0)">
	<rect id="Energy-_7.00" x="209" y="44.2" class="st11" width="175.6" height="27"/>
</g>
<g id="Financials-_7.92_1_" transform="translate(176.359375,0)">
	<rect id="Financials-_7.92" x="209" y="78.2" class="st11" width="198.6" height="27"/>
</g>
<g id="Health-_7.13_1_" transform="translate(176.359375,0)">
	<rect id="Health-_7.13" x="209" y="112.2" class="st11" width="178.8" height="27"/>
</g>
<g id="Industrials-_7.44_1_" transform="translate(176.359375,0)">
	<rect id="Industrials-_7.44" x="209" y="146.2" class="st11" width="186.6" height="27"/>
</g>
<g id="Materials-_6.88_1_" transform="translate(176.359375,0)">
	<rect id="Materials-_6.88" x="209" y="180.2" class="st11" width="172.6" height="27"/>
</g>
<g id="Utilities-_6.40_1_" transform="translate(176.359375,0)">
	<rect id="Utilities-_6.40" x="209" y="214.2" class="st11" width="160.5" height="27"/>
</g>
<g id="IT-_7.58_1_" transform="translate(176.359375,0)">
	<rect id="IT-_7.58" x="209" y="248.2" class="st11" width="190.1" height="27"/>
</g>
<g id="Consumer_discretionary-_7.57_1_" transform="translate(176.359375,0)">
	<rect id="Consumer_discretionary-_7.57" x="209" y="282.2" class="st11" width="189.9" height="27"/>
</g>
<g id="Consumer_staples-_7.41_1_" transform="translate(176.359375,0)">
	<rect id="Consumer_staples-_7.41" x="209" y="316.2" class="st11" width="185.8" height="27"/>
</g>
<g id="Telecomm-_6.00_1_" transform="translate(176.359375,0)">
	<rect id="Telecomm-_6.00" x="209" y="350.2" class="st11" width="150.5" height="27"/>
</g>
<line class="st10" x1="247.2" y1="391" x2="247.2" y2="36.2"/>
<text transform="matrix(-1 0 0 1 252.0003 406.78)" class="st4 st2 st9">0</text>
<line class="st7" x1="214.5" y1="391" x2="214.5" y2="36.2"/>
<text transform="matrix(1 0 0 1 208.3438 406.78)" class="st4 st2 st9">10</text>
<line class="st7" x1="181.9" y1="391" x2="181.9" y2="36.2"/>
<text transform="matrix(1 0 0 1 176.7608 406.78)" class="st4 st2 st9">20</text>
<line class="st7" x1="149.3" y1="391" x2="149.3" y2="36.2"/>
<text transform="matrix(1 0 0 1 144.0811 406.78)" class="st4 st2 st9">30</text>
<line class="st7" x1="116.7" y1="391" x2="116.7" y2="36.2"/>
<text transform="matrix(1 0 0 1 112.1026 406.78)" class="st4 st2 st9">40</text>
<line class="st7" x1="84.1" y1="391" x2="84.1" y2="36.2"/>
<text transform="matrix(1 0 0 1 78.9268 406.78)" class="st4 st2 st9">50</text>
<line class="st7" x1="51.5" y1="391" x2="51.5" y2="36.2"/>
<text transform="matrix(1 0 0 1 46.6328 406.78)" class="st4 st2 st9">60</text>
<path class="st0" d="M48.5,391V36.2h198.6V391"/>
<g id="Energy-_60.90_1_" transform="translate(176.359375,0)">
	<rect id="Energy-_60.90" x="-127.8" y="47.2" class="st11" width="198.6" height="27"/>
</g>
<g id="Financials-_60.69_1_" transform="translate(176.359375,0)">
	<rect id="Financials-_60.69" x="-127.2" y="81.2" class="st11" width="198" height="27"/>
</g>
<g id="Health-_60.27_1_" transform="translate(176.359375,0)">
	<rect id="Health-_60.27" x="-125.8" y="115.2" class="st11" width="196.6" height="27"/>
</g>
<g id="Industrials-_60.19_1_" transform="translate(176.359375,0)">
	<rect id="Industrials-_60.19" x="-125.5" y="149.2" class="st11" width="196.3" height="27"/>
</g>
<g id="Materials-_60.06_1_" transform="translate(176.359375,0)">
	<rect id="Materials-_60.06" x="-125.1" y="183.2" class="st11" width="195.9" height="27"/>
</g>
<g id="Utilities-_59.97_1_" transform="translate(176.359375,0)">
	<rect id="Utilities-_59.97" x="-124.8" y="217.2" class="st11" width="195.6" height="27"/>
</g>
<g id="IT-_59.24_1_" transform="translate(176.359375,0)">
	<rect id="IT-_59.24" x="-122.4" y="251.2" class="st11" width="193.2" height="27"/>
</g>
<g id="Consumer_discretionary-_59.12_1_" transform="translate(176.359375,0)">
	<rect id="Consumer_discretionary-_59.12" x="-122" y="285.2" class="st11" width="192.8" height="27"/>
</g>
<g id="Consumer_staples-_59.08_1_" transform="translate(176.359375,0)">
	<rect id="Consumer_staples-_59.08" x="-121.9" y="319.2" class="st11" width="192.7" height="27"/>
</g>
<g id="Telecomm-_57.92_1_" transform="translate(176.359375,0)">
	<rect id="Telecomm-_57.92" x="-118.1" y="353.2" class="st11" width="188.9" height="27"/>
</g>
</svg>
