<?xml version="1.0" encoding="utf-8"?>
<!-- Generator: Adobe Illustrator 19.2.1, SVG Export Plug-In . SVG Version: 6.00 Build 0)  -->
<svg version="1.1" id="webchart" xmlns="http://www.w3.org/2000/svg" xmlns:xlink="http://www.w3.org/1999/xlink" x="0px" y="0px"
	 viewBox="0 0 307 572" style="enable-background:new 0 0 307 572;" xml:space="preserve">
<style type="text/css">
	.st0{fill:none;}
	.st1{enable-background:new    ;}
	.st2{fill:#3B3D3B;}
	.st3{font-family:'Metric-Regular';}
	.st4{font-size:23px;}
	.st5{clip-path:url(#SVGID_2_);}
	.st6{clip-path:url(#SVGID_4_);}
	.st7{clip-path:url(#SVGID_6_);}
	.st8{fill:#9E2F50;}
	.st9{fill:#6B6E68;}
	.st10{font-size:14px;}
	.st11{fill:#DACFC5;}
	.st12{font-size:18px;}
	.st13{font-family:'Metric-Medium';}
	.st14{font-size:24px;}
	.st15{fill:#636363;}
	.st16{fill:#F9F9F9;}
	.st17{fill:#5E5B5B;}
	.st18{fill:#FCFCFC;}
	.st19{fill:none;stroke:#000000;stroke-width:0.5;stroke-miterlimit:10;}
	.st20{font-size:21px;}
</style>
<rect y="3.8" class="st0" width="301.5" height="66.2"/>
<rect y="3.8" class="st0" width="321.2" height="67.2"/>
<text transform="matrix(1.03 0 0 1 0 22.3867)" class="st1"><tspan x="0" y="0" class="st2 st3 st4">Compared to a European director, </tspan><tspan x="0" y="27.6" class="st2 st3 st4">the average US director is ....</tspan></text>
<rect x="421" y="3.8" class="st0" width="11.1" height="23.2"/>
<text transform="matrix(1.03 0 0 1 420.9902 22.3867)" class="st2 st3 st4">-</text>
<g>
	<g>
		<defs>
			<rect id="SVGID_1_" x="1" y="746.8" width="88" height="15"/>
		</defs>
		<clipPath id="SVGID_2_">
			<use xlink:href="#SVGID_1_"  style="overflow:visible;"/>
		</clipPath>
		<g class="st5">
			<text transform="matrix(1 0 0 1 38.9531 757.333)" style="font-family:'Calibri'; font-size:12px;">!&quot;#$$%$$</text>
		</g>
	</g>
	<g>
		<defs>
			<rect id="SVGID_3_" x="1" y="746.8" width="88" height="15"/>
		</defs>
		<clipPath id="SVGID_4_">
			<use xlink:href="#SVGID_3_"  style="overflow:visible;"/>
		</clipPath>
		<g class="st6">
			<text transform="matrix(1 0 0 1 7.0386 757.333)" style="font-family:'Calibri'; font-size:12px;">&amp;&amp;&amp;&amp;&amp;&amp;&amp;&amp;&amp;&amp;&amp;&amp;</text>
		</g>
	</g>
	<g>
		<defs>
			<rect id="SVGID_5_" x="1" y="746.8" width="88" height="15"/>
		</defs>
		<clipPath id="SVGID_6_">
			<use xlink:href="#SVGID_5_"  style="overflow:visible;"/>
		</clipPath>
		<g class="st7">
			<text transform="matrix(1 0 0 1 40 757.333)" style="font-family:'Calibri'; font-size:12px;">&amp;</text>
		</g>
	</g>
</g>
<rect x="-119" y="98.3" class="st8" width="12" height="12"/>
<rect x="-100.3" y="98.3" class="st8" width="12" height="12"/>
<text transform="matrix(1 0 0 1 4 566.1812)" class="st9 st3 st10">Source: FT analysis of ISS Analytics data</text>
<g transform="translate(571,384)">
	<path class="st11" d="M-295.2,183.8h7.6v-0.6c-0.5,0-0.9,0-1.2-0.1c-0.3,0-0.5-0.1-0.7-0.3c-0.2-0.1-0.3-0.3-0.4-0.6
		c-0.1-0.2-0.1-0.6-0.1-1V176h1.2c1.1,0,1.9,0.2,2.3,0.5c0.5,0.3,0.8,0.9,1,1.9h0.6v-5.6h-0.5c-0.1,0.6-0.3,1-0.5,1.3
		c-0.2,0.3-0.5,0.5-1,0.6c-0.4,0.1-1,0.2-1.8,0.2h-1.2v-5.1c0-0.3,0.1-0.5,0.2-0.7c0.1-0.1,0.3-0.2,0.7-0.2h2.4c0.8,0,1.4,0,1.9,0.1
		c0.5,0.1,0.9,0.2,1.2,0.4s0.6,0.4,0.7,0.7c0.2,0.3,0.3,0.7,0.5,1.1h0.7l-0.2-3.4h-13.4v0.6c0.4,0,0.8,0.1,1,0.1
		c0.2,0,0.4,0.1,0.6,0.3c0.2,0.1,0.3,0.3,0.4,0.5c0.1,0.2,0.1,0.6,0.1,1v10.9c0,0.4,0,0.8-0.1,1c-0.1,0.2-0.2,0.4-0.4,0.6
		c-0.2,0.1-0.4,0.2-0.6,0.3c-0.2,0-0.6,0.1-1,0.1C-295.2,183.2-295.2,183.8-295.2,183.8z M-281,171.3h0.8c0.3-0.9,0.6-1.5,1-1.8
		c0.4-0.4,1.1-0.5,1.9-0.5h2v12.3c0,0.4,0,0.8-0.1,1c-0.1,0.2-0.2,0.4-0.4,0.6c-0.2,0.1-0.4,0.2-0.7,0.3c-0.3,0-0.6,0.1-1.1,0.1v0.5
		h7.7v-0.6c-0.5,0-0.9,0-1.1-0.1c-0.3,0-0.5-0.1-0.7-0.3c-0.2-0.1-0.3-0.3-0.4-0.6c-0.1-0.2-0.1-0.6-0.1-1V169h2
		c0.8,0,1.5,0.2,1.9,0.5c0.4,0.4,0.8,1,1,1.8h0.8l-0.2-3.5h-13.9L-281,171.3z"/>
</g>
<rect x="11" y="179.6" class="st0" width="136.7" height="18.1"/>
<text transform="matrix(1 0 0 1 11 194.0833)" class="st9 st3 st12">. . . serving a tenure </text>
<rect x="148.1" y="174.7" class="st0" width="10.8" height="24.6"/>
<text transform="matrix(1 0 0 1 148.1 194.0833)" class="st9 st13 st14">2</text>
<rect x="158.9" y="179.6" class="st0" width="89" height="18.1"/>
<text transform="matrix(1 0 0 1 158.8995 194.0833)" class="st9 st3 st12"> years </text>
<text transform="matrix(1 0 0 1 10.9999 317.0675)" class="st9 st3 st12">. . . </text>
<text transform="matrix(1 0 0 1 32.1999 317.0675)" class="st9 st13 st14">10%</text>
<text transform="matrix(1 0 0 1 68.8999 317.0675)" class="st9 st3 st12"> more likely to be a man</text>
<text transform="matrix(1 0 0 1 10.9999 432.0675)" class="st9 st3 st12">. . .</text>
<text transform="matrix(1 0 0 1 28.2 432.0675)" class="st9 st13 st12"> </text>
<text transform="matrix(1 0 0 1 32.2 432.0675)" class="st9 st13 st14">17%</text>
<text transform="matrix(1 0 0 1 66.8 432.0675)" class="st9 st3 st12"> more likely to be over 65</text>
<rect x="714" y="41.2" class="st8" width="25" height="20"/>
<rect x="629.9" y="41.2" class="st15" width="61.6" height="20"/>
<rect x="630.9" y="152.4" class="st0" width="94.4" height="17.9"/>
<text transform="matrix(1 0 0 1 673.0363 166.0718)" class="st15 st3 st20">6</text>
<rect x="626.9" y="210.2" class="st0" width="94.4" height="17.9"/>
<text transform="matrix(1 0 0 1 664.7521 223.8464)" class="st15 st3 st20">75</text>
<rect x="670.8" y="322.2" class="st0" width="94.4" height="45.3"/>
<text transform="matrix(1 0 0 1 713.3174 335.8254)" class="st8 st3 st20">2</text>
<rect x="670.3" y="152.4" class="st0" width="93.4" height="17.1"/>
<text transform="matrix(1 0 0 1 711.8661 166.0694)" class="st8 st3 st20">8</text>
<rect x="670.8" y="209.7" class="st0" width="94.4" height="45.3"/>
<text transform="matrix(1 0 0 1 708.1835 223.3215)" class="st8 st3 st20">85</text>
<rect x="627.9" y="322.2" class="st0" width="94.4" height="45.3"/>
<text transform="matrix(1 0 0 1 669.4482 335.8254)" class="st15 st3 st20">0</text>
<g>
	<rect x="601.3" y="43.2" class="st0" width="169" height="32"/>
	<text transform="matrix(1 0 0 1 634.0164 56.1736)" class="st16 st3" style="font-size:20px;">Europe</text>
	<text transform="matrix(1 0 0 1 689.1164 56.1736)" class="st17 st3" style="font-size:20px;">  v  </text>
	<text transform="matrix(1 0 0 1 715.8164 56.1736)" class="st18 st3" style="font-size:20px;">US </text>
</g>
<rect x="604.4" y="76.8" class="st0" width="186.4" height="18.6"/>
<rect x="604.4" y="132.7" class="st0" width="186.4" height="18.6"/>
<text transform="matrix(0.94 0 0 1 647.4365 141.7764)" class="st17 st13 st10">Average tenure</text>
<rect x="604.4" y="189.5" class="st0" width="186.4" height="18.6"/>
<text transform="matrix(0.94 0 0 1 675.3154 198.6182)" class="st17 st13 st10">Men (%)</text>
<rect x="-21.6" y="427.3" class="st0" width="186.4" height="18.6"/>
<text transform="matrix(0.94 0 0 1 664.7949 253.4434)" class="st17 st13 st10">Over 65 (%)</text>
<rect x="580.4" y="384.2" class="st0" width="186.4" height="18.6"/>
<text transform="matrix(0.94 0 0 1 620.9258 309.2759)" class="st17 st13 st10">Over life expectancy (%)</text>
<rect x="102.6" y="110.3" class="st8" width="30" height="42.5"/>
<rect x="76.9" y="112.7" class="st15" width="30" height="40"/>
<rect x="19" y="134.8" class="st0" width="94.4" height="17.9"/>
<rect x="116.2" y="134.4" class="st0" width="54.2" height="18.3"/>
<text transform="matrix(0.94 0 0 1 102.9227 165.9434)" class="st17 st13 st10">Average Age</text>
<line class="st19" x1="118.4" y1="150.4" x2="169.8" y2="150.4"/>
<line class="st19" x1="670.9" y1="257.9" x2="722.3" y2="257.9"/>
<rect x="179.7" y="95.7" class="st8" width="30" height="57"/>
<rect x="154" y="102.7" class="st15" width="30" height="50"/>
<rect x="52.5" y="237.1" class="st0" width="94.4" height="17.9"/>
<text transform="matrix(1 0 0 1 88.2224 255.0797)" class="st15 st3 st20">6</text>
<text transform="matrix(1 0 0 1 177.235 255.0797)" class="st8 st3 st20">8</text>
<text transform="matrix(0.94 0 0 1 94.4471 282.8143)" class="st17 st13 st10">Average TENURE</text>
<line class="st19" x1="118.9" y1="267.3" x2="170.3" y2="267.3"/>
<g>
	<rect x="141.7" y="334" class="st8" width="30" height="45"/>
	<rect x="107" y="339" class="st15" width="30" height="40"/>
	<text transform="matrix(1 0 0 1 78.655 373.0797)" class="st15 st3 st20">75</text>
	<rect x="144.7" y="354.7" class="st0" width="54.2" height="18.3"/>
	<text transform="matrix(1 0 0 1 176.235 373.0797)" class="st8 st3 st20">85</text>
	<text transform="matrix(0.94 0 0 1 118.1219 400.8143)" class="st17 st13 st10">MALE (%)</text>
	<line class="st19" x1="117.9" y1="385.3" x2="169.3" y2="385.3"/>
</g>
<g>
	<rect x="141.7" y="445" class="st8" width="30" height="79"/>
	<rect x="107" y="484" class="st15" width="30" height="40"/>
	<rect x="51.5" y="500.1" class="st0" width="94.4" height="17.9"/>
	<text transform="matrix(1 0 0 1 80.2087 518.0797)" class="st15 st3 st20">18</text>
	<rect x="144.7" y="499.7" class="st0" width="54.2" height="18.3"/>
	<text transform="matrix(1 0 0 1 176.235 518.0797)" class="st8 st3 st20">35</text>
	<text transform="matrix(0.94 0 0 1 110.8055 545.8143)" class="st17 st13 st10">OVER 65 (%)</text>
	<line class="st19" x1="117.9" y1="530.3" x2="169.3" y2="530.3"/>
</g>
</svg>
